<svg xmlns="http://www.w3.org/2000/svg" contentScriptType="text/ecmascript" width="187.5" viewBox="0 0 187.5 187.5" height="187.5" version="1.0"><defs><clipPath id="a"><path d="M 0 0 L 187 0 L 187 187 L 0 187 Z M 0 0"/></clipPath></defs><g clip-path="url(#a)"><path fill="#FFF" d="M 0 0 L 187.5 0 L 187.5 194.25 L 0 194.25 Z M 0 0"/><path fill="#FFF" d="M 0 0 L 187.5 0 L 187.5 187.5 L 0 187.5 Z M 0 0"/><path fill="#5CE1E6" d="M 0 0 L 187.5 0 L 187.5 187.5 L 0 187.5 Z M 0 0"/></g><path fill="#FD615B" d="M 84.523438 164.203125 L 69.230469 134.960938 L 160.941406 86.996094 L 176.234375 116.238281 Z M 84.523438 164.203125"/><path fill="#FD615B" d="M 171.082031 156.085938 L 157.554688 186.183594 L 18.679688 123.78125 L 32.207031 93.679688 Z M 171.082031 156.085938"/><path fill="#FD615B" d="M 17.589844 18.75 L 88.070312 18.75 L 88.070312 43.5 L 17.589844 43.5 Z M 17.589844 18.75"/><path fill="#FD615B" d="M 52.652344 31.125 C 39.605469 31.125 29.027344 41.703125 29.027344 54.75 C 29.027344 67.796875 39.605469 78.375 52.652344 78.375 C 65.699219 78.375 76.277344 67.796875 76.277344 54.75 C 76.277344 41.703125 65.699219 31.125 52.652344 31.125 Z M 52.652344 31.125"/><path fill="#FD615B" d="M 100.84375 18.75 L 171.324219 18.75 L 171.324219 43.5 L 100.84375 43.5 Z M 100.84375 18.75"/><path fill="#FD615B" d="M 135.90625 31.125 C 122.859375 31.125 112.28125 41.703125 112.28125 54.75 C 112.28125 67.796875 122.859375 78.375 135.90625 78.375 C 148.953125 78.375 159.53125 67.796875 159.53125 54.75 C 159.53125 41.703125 148.953125 31.125 135.90625 31.125 Z M 135.90625 31.125"/></svg>